<?xml version="1.0" standalone="no"?><!DOCTYPE svg PUBLIC "-//W3C//DTD SVG 1.1//EN" "http://www.w3.org/Graphics/SVG/1.1/DTD/svg11.dtd"><svg t="1533864291529" class="icon" style="" viewBox="0 0 1024 1024" version="1.1" xmlns="http://www.w3.org/2000/svg" p-id="935" xmlns:xlink="http://www.w3.org/1999/xlink" width="200" height="200"><defs><style type="text/css"></style></defs><path d="M742.8 885c-8.7 0-17.5-2.1-25.5-6.4L522.6 776.3c-6.6-3.5-14.6-3.5-21.2 0L306.7 878.6c-18.6 9.8-40.7 8.2-57.7-4.2-17-12.3-25.3-32.9-21.8-53.6L264.4 604c1.3-7.4-1.2-14.9-6.6-20.2L100.4 430.4c-15-14.7-20.4-36.2-13.9-56.2s23.4-34.3 44.2-37.3l217.7-31.6c7.4-1.1 13.8-5.7 17.2-12.5l97.3-197.2c9.3-18.8 28.1-30.5 49.1-30.5s39.8 11.7 49.1 30.5l97.3 197.2c3.3 6.7 9.7 11.4 17.1 12.5 8.7 1.3 14.8 9.4 13.5 18.1-1.3 8.7-9.4 14.8-18.1 13.5-17.8-2.6-33.3-13.8-41.2-30l-97.3-197.2c-3.9-8-11.6-12.7-20.4-12.7-8.9 0-16.5 4.7-20.4 12.7l-97.3 197.2c-8 16.2-23.4 27.4-41.2 30l-217.7 31.6c-8.8 1.3-15.6 7.1-18.4 15.5-2.7 8.4-0.6 17.2 5.8 23.3L280.2 561c12.9 12.6 18.8 30.7 15.8 48.5l-37.2 216.8c-1.5 8.7 1.9 17.1 9.1 22.3 7.2 5.2 16.1 5.9 24 1.7L486.6 748c16-8.4 35-8.4 51 0l194.7 102.3c7.8 4.1 16.8 3.5 24-1.7 7.2-5.2 10.6-13.5 9.1-22.3L728 609.5c-3-17.8 2.8-35.9 15.8-48.5l157.5-153.5c6.3-6.2 8.5-14.9 5.8-23.3s-9.6-14.2-18.4-15.5l-34-4.9c-8.7-1.3-14.8-9.4-13.5-18.1 1.3-8.7 9.4-14.8 18.1-13.5l34 4.9c20.8 3 37.7 17.3 44.2 37.3 6.5 20 1.2 41.5-13.9 56.2L766.1 583.9c-5.4 5.2-7.8 12.8-6.6 20.2l37.2 216.8c3.6 20.7-4.8 41.2-21.8 53.6-9.5 6.9-20.8 10.5-32.1 10.5z" fill="" p-id="936"></path><path d="M573.2 512c34.9 0 53.5 32.3 30.3 63.4-18.5 24.8-45.5 40.4-75.5 40.4s-57-15.6-75.5-40.4c-23.2-31.1-4.6-63.4 30.3-63.4h90.4z" fill="#8274E8" p-id="937"></path><path d="M512 615.8c-33.9 0-66.1-17.1-88.3-46.8-14.3-19.2-17.4-41.6-8.3-59.9 9.1-18.2 28.3-29.1 51.3-29.1h90.5c23 0 42.2 10.9 51.3 29.1 9.2 18.3 6.1 40.7-8.3 59.9-22.1 29.8-54.3 46.8-88.2 46.8zM466.8 512c-10.7 0-19.2 4.3-22.7 11.4-3.7 7.3-1.8 17 5.3 26.4 16.1 21.6 39 34 62.7 34 23.7 0 46.5-12.4 62.7-34 7-9.4 9-19.1 5.3-26.4-3.6-7.2-12.1-11.4-22.7-11.4h-90.6z" fill="" p-id="938"></path></svg>