<?xml version="1.0" standalone="no"?><!DOCTYPE svg PUBLIC "-//W3C//DTD SVG 1.1//EN" "http://www.w3.org/Graphics/SVG/1.1/DTD/svg11.dtd"><svg t="1533864301821" class="icon" style="" viewBox="0 0 1024 1024" version="1.1" xmlns="http://www.w3.org/2000/svg" p-id="1077" xmlns:xlink="http://www.w3.org/1999/xlink" width="200" height="200"><defs><style type="text/css"></style></defs><path d="M314.3 864c-30.8 0-59.2-2.5-83.5-7.5-1.3-0.3-2.5-0.7-3.7-1.3-9.1-4.4-21.6-11.8-24.6-25.1-3.1-14.2 6.1-25.4 15.1-36.3 11.6-14.1 24.8-30 23-56.7-2.3-35.1-30-80.4-82.1-134.8-0.3-0.3-0.5-0.6-0.8-0.9C118.9 554.7 100 499 100 431.1c0-49 11-96.8 32.7-142 20.9-43.6 50.7-82.8 88.6-116.6 37.9-33.8 81.9-60.3 130.8-78.9 50.8-19.3 104.5-29 159.8-29 109.6 0 212.8 37.3 290.5 104.9 38 33.1 67.9 71.6 88.8 114.6C913 328.8 924 376.3 924 425.2c0 43.4-8.4 85.6-25 125.5-3.4 8.2-12.8 12-20.9 8.6-8.2-3.4-12-12.8-8.6-20.9 14.9-35.9 22.5-74 22.5-113.2C892 244 721.5 96.6 512 96.6S132 246.7 132 431.2c0 59.9 16.3 108.8 50 149.5 58.1 60.6 87.7 111.1 90.6 154.4 2.6 39.4-17.2 63.3-30.3 79.2-2.3 2.8-5.3 6.4-7.1 9 0.9 0.6 2.2 1.4 4 2.3 98.3 19.5 319.4-0.3 502-136.3 7.1-5.3 17.1-3.8 22.4 3.3 5.3 7.1 3.8 17.1-3.3 22.4-105.8 78.7-217.6 115-292.7 131.5C415.1 858 361.9 864 314.3 864z" fill="" p-id="1078"></path><path d="M333 452.7m-70 0a70 70 0 1 0 140 0 70 70 0 1 0-140 0Z" fill="#8274E8" p-id="1079"></path><path d="M529 452.7m-70 0a70 70 0 1 0 140 0 70 70 0 1 0-140 0Z" fill="#8274E8" p-id="1080"></path><path d="M725 452.7m-70 0a70 70 0 1 0 140 0 70 70 0 1 0-140 0Z" fill="#8274E8" p-id="1081"></path><path d="M317 522.3c-47.4 0-86-38.6-86-86s38.6-86 86-86 86 38.6 86 86-38.6 86-86 86z m0-140c-29.8 0-54 24.2-54 54s24.2 54 54 54 54-24.2 54-54-24.2-54-54-54zM513 522.3c-47.4 0-86-38.6-86-86s38.6-86 86-86 86 38.6 86 86-38.6 86-86 86z m0-140c-29.8 0-54 24.2-54 54s24.2 54 54 54 54-24.2 54-54-24.2-54-54-54zM709 522.3c-47.4 0-86-38.6-86-86s38.6-86 86-86 86 38.6 86 86-38.6 86-86 86z m0-140c-29.8 0-54 24.2-54 54s24.2 54 54 54 54-24.2 54-54-24.2-54-54-54z" fill="" p-id="1082"></path></svg>