<?xml version="1.0" standalone="no"?><!DOCTYPE svg PUBLIC "-//W3C//DTD SVG 1.1//EN" "http://www.w3.org/Graphics/SVG/1.1/DTD/svg11.dtd"><svg t="1533864311240" class="icon" style="" viewBox="0 0 1024 1024" version="1.1" xmlns="http://www.w3.org/2000/svg" p-id="1221" xmlns:xlink="http://www.w3.org/1999/xlink" width="200" height="200"><defs><style type="text/css"></style></defs><path d="M879.4 473H634.6c-24.3 0-43.9-19.7-43.9-43.9V200.9c0-26.8 23.7-47.3 50.2-43.5 72.7 10.3 137.9 42.7 187.6 89.8 48.8 46.2 82.7 106.6 94.3 174.1 4.5 27-16 51.7-43.4 51.7z" fill="#8274E8" p-id="1222"></path><path d="M855.2 512.3H610.3c-33.1 0-59.9-26.9-59.9-59.9V224.3c0-17.4 7.5-33.8 20.6-45.2 13.2-11.4 30.6-16.6 47.9-14.1 37.4 5.3 73.4 16.3 107.1 32.6 32.9 15.9 62.9 36.6 89.2 61.5 52.8 50.1 87.1 113.4 99 183 3 17.6-1.8 35.4-13.3 49-11.4 13.5-28 21.2-45.7 21.2zM610.4 196.4c-6.7 0-13.3 2.4-18.4 6.9-6.2 5.4-9.6 12.9-9.6 21.1v228.1c0 15.4 12.5 27.9 27.9 27.9h244.8c8.2 0 16-3.6 21.3-9.9 5.4-6.4 7.6-14.7 6.2-23-10.8-62.8-41.7-119.9-89.5-165.2-48.9-46.3-110.7-75.9-178.8-85.6-1.2-0.3-2.6-0.3-3.9-0.3z" fill="" p-id="1223"></path><path d="M499 417.7V191.5c0-27.7-24.6-48.8-52-44.7-57.3 8.5-110 30.9-154.7 63.6-22.3 16.3-24.6 48.7-5.1 68.3l75.8 75.8 53.8 53.8 30.8 30.8c18.9 18.9 51.4 5.4 51.4-21.4z" fill="#FFFFFF" p-id="1224"></path><path d="M468.6 463.9c-11.9 0-23.4-4.7-32.3-13.6L276 290c-12.7-12.7-19.1-30.2-17.8-48.1 1.4-17.8 10.4-34 24.7-44.4 47.6-34.9 103.6-57.9 161.8-66.5 17.7-2.6 35.6 2.5 49.1 14.2 13.5 11.6 21.2 28.5 21.2 46.3v226.2c0 19-10.9 35.3-28.5 42.6-5.9 2.5-11.9 3.6-17.9 3.6z m-14.9-301.6c-1.4 0-2.9 0.1-4.3 0.3-53.1 7.9-104.1 28.9-147.6 60.7-6.9 5-11 12.5-11.7 21.1-0.7 8.5 2.4 16.9 8.5 23l160.3 160.3c6.2 6.2 13.4 3.9 15.4 3.1 2-0.8 8.7-4.3 8.7-13.1V191.5c0-8.6-3.6-16.4-10.1-22.1-5.4-4.6-12.2-7.1-19.2-7.1z" fill="" p-id="1225"></path><path d="M477 927.3h-3c-50.2-0.4-98.6-10.6-144.1-30.4-43.9-19.1-83.1-46.3-116.6-80.8s-59.5-74.6-77.4-119.1c-18.5-46.1-27.3-94.9-26.2-145.1 0.9-43.1 9.3-85.2 24.8-125.1 15-38.6 36.4-74.2 63.5-105.8 7.4-8.6 18.2-13.8 29.6-14.3 11.4-0.4 22.6 4 30.7 12l193.1 193.1c20.8 20.8 48.3 32.2 77.7 32.2H613c8.8 0 16 7.2 16 16s-7.2 16-16 16h-83.8c-37.9 0-73.5-14.8-100.3-41.6l-193.1-193c-2.5-2.5-5.4-2.7-6.9-2.7-1.5 0.1-4.3 0.5-6.5 3.1-50.3 58.7-78.9 133.5-80.6 210.8-2 90.7 31.6 176.4 94.5 241.2 62.8 64.7 147.4 100.8 238 101.5h2.7c174.5 0 321.1-135.4 334.4-309.4 0.3-3.5-1.4-5.9-2.4-7-1-1.1-3.2-2.9-6.7-2.9H703c-8.8 0-16-7.2-16-16s7.2-16 16-16h99.2c11.4 0 22.4 4.8 30.2 13.2 7.8 8.4 11.8 19.8 10.9 31.2-7.1 92.5-48.7 178.3-117.1 241.5-68.1 62.9-156.5 97.4-249.2 97.4z" fill="" p-id="1226"></path></svg>