<?xml version="1.0" standalone="no"?><!DOCTYPE svg PUBLIC "-//W3C//DTD SVG 1.1//EN" "http://www.w3.org/Graphics/SVG/1.1/DTD/svg11.dtd"><svg t="1533808994448" class="icon" style="" viewBox="0 0 1024 1024" version="1.1" xmlns="http://www.w3.org/2000/svg" p-id="13743" xmlns:xlink="http://www.w3.org/1999/xlink" width="200" height="200"><defs><style type="text/css"></style></defs><path d="M113.8 847.9s-56-75-53.5-122.7 60.2-95.2 111.5-111.5c51.2-16.3 97-22.8 129.1-108.7 32.1-85.9 101.9-74.3 101.9-74.3s30.6 11.7 3.6 43c-26.9 31.3-41.2 51.3-27.1 63.5 14 12.2 24.6 14.7 34.6 10.5l37.1 37.1s-38.8 41.7-39.1 50.8c-0.4 9.1 1.8 60.8 70.2 17.1 68.4-43.7 24.5 41 24.5 41s-42.5 57-67 67-76.3 26.8-89 71.5c-12.7 44.7-19.5 83-28.7 97.6-9.2 14.5-49.5 48-80.6 39.8-31.1-8.3-85.4-67.5-85.4-67.5l-42.1-54.2z" fill="#E27866" p-id="13744"></path><path d="M336.7 771.6c-3.6 3.6-9.4 3.6-13 0-3.6-3.6-3.6-9.4 0-13 3.6-3.6 9.4-3.6 13 0 3.6 3.6 3.6 9.4 0 13z" fill="#735F4F" p-id="13745"></path><path d="M335.1 770c-2.7 2.7-7.1 2.7-9.8 0-2.7-2.7-2.7-7.1 0-9.8 2.7-2.7 7.1-2.7 9.8 0 2.7 2.7 2.7 7.1 0 9.8z" fill="#7A6557" p-id="13746"></path><path d="M329.4 821.8c-4.1 4.1-10.8 4.1-15 0-4.1-4.1-4.1-10.8 0-15 4.1-4.1 10.9-4.1 15 0 4.2 4.2 4.2 10.9 0 15z" fill="#735F4F" p-id="13747"></path><path d="M327.6 820c-3.1 3.1-8.2 3.1-11.3 0-3.1-3.1-3.1-8.2 0-11.3 3.1-3.1 8.2-3.1 11.3 0 3.1 3.1 3.1 8.2 0 11.3z" fill="#7A6557" p-id="13748"></path><path d="M294.1 892.2c-5.8 5.8-15.1 5.8-20.9 0-5.8-5.8-5.8-15.2 0-20.9 5.8-5.8 15.2-5.8 21 0 5.7 5.7 5.7 15.1-0.1 20.9z" fill="#735F4F" p-id="13749"></path><path d="M291.5 889.6c-4.4 4.3-11.4 4.4-15.8 0s-4.4-11.4 0-15.8 11.4-4.3 15.8 0c4.3 4.4 4.4 11.4 0 15.8z" fill="#7A6557" p-id="13750"></path><path d="M798.5 162.5l-11.8-19 6.7-4.2 11.9 19z" fill="#9E9090" p-id="13751"></path><path d="M792.3 145c-6.5 4-14.2 3.3-17.2-1.6s-0.2-12.1 6.2-16.1c6.5-4 14.2-3.3 17.2 1.6 3.1 4.9 0.3 12.1-6.2 16.1z" fill="#897D7D" p-id="13752"></path><path d="M832.8 141.1l-11.8-19 6.8-4.2 11.8 19z" fill="#9E9090" p-id="13753"></path><path d="M826.7 123.7c-6.5 4-14.2 3.3-17.2-1.6s-0.2-12.1 6.2-16.1c6.5-4 14.2-3.3 17.2 1.6 3 4.8 0.2 12-6.2 16.1z" fill="#897D7D" p-id="13754"></path><path d="M867.2 119.8l-11.8-19 6.7-4.2 11.8 18.9z" fill="#9E9090" p-id="13755"></path><path d="M861 102.3c-6.5 4-14.2 3.3-17.2-1.6s-0.2-12.1 6.2-16.1c6.5-4 14.2-3.3 17.2 1.6s0.3 12.1-6.2 16.1z" fill="#897D7D" p-id="13756"></path><path d="M902.9 99.8l-11.8-19 6.8-4.2 11.8 19z" fill="#9E9090" p-id="13757"></path><path d="M896.7 82.4c-6.5 4-14.2 3.3-17.2-1.6s-0.3-12.1 6.2-16.1c6.5-4 14.1-3.3 17.2 1.6 3.1 4.8 0.3 12.1-6.2 16.1z" fill="#897D7D" p-id="13758"></path><path d="M784.3 203.2l-11.6-28.4s0-9.1 6.7-14.4c6.7-5.3 104.4-64.4 104.4-64.4l38-19.2s21.7-7.5 34.2 18.9c12.6 26.4-24.1 41.2-37.3 41.2-13.2 0-19.3 13-23.8 23.2-4.6 10.2-28.9 64.5-40.7 59.6-11.9-4.9-23.9-5.7-29.7-3-5.7 2.7-16.6 10-16.6 10l-23.6-23.5z" fill="#735F4F" p-id="13759"></path><path d="M809.8 178.3c-3.7 2.3-8.6 1.2-10.9-2.6-2.3-3.7-1.2-8.6 2.6-10.9 3.7-2.3 8.6-1.2 10.9 2.5 2.2 3.8 1.1 8.7-2.6 11zM845.4 156.6c-3.7 2.3-8.6 1.2-10.9-2.5-2.3-3.7-1.2-8.6 2.5-10.9 3.7-2.3 8.6-1.2 10.9 2.5 2.4 3.7 1.2 8.6-2.5 10.9zM881.1 135c-3.7 2.3-8.6 1.2-10.9-2.5-2.3-3.7-1.2-8.6 2.5-11 3.8-2.3 8.6-1.2 10.9 2.5 2.4 3.8 1.2 8.7-2.5 11zM914 110.5c-3.8 2.3-8.6 1.2-10.9-2.6-2.3-3.7-1.2-8.6 2.5-10.9 3.7-2.3 8.6-1.2 10.9 2.6 2.3 3.7 1.2 8.6-2.5 10.9z" fill="#9E9090" p-id="13760"></path><path d="M778.956 191.262l34.228 34.219-3.535 3.536-34.228-34.22z" fill="#D0CFD1" p-id="13761"></path><path d="M266.5 813.8c-0.8 0.8-2.1 0.7-3-0.1l-72.8-72.8c-0.9-0.9-0.9-2.2-0.1-3l10.9-10.9c0.8-0.8 2.1-0.7 3 0.1l72.8 72.8c0.9 0.9 0.9 2.2 0.1 3l-10.9 10.9z" fill="#735F4F" p-id="13762"></path><path d="M212.5 768.7c-0.8 0.8-2.1 0.7-3-0.1l-4.7-4.7c-0.9-0.9-0.9-2.2-0.1-3l19.9-19.9c0.8-0.8 2.1-0.7 3 0.1l4.7 4.7c0.8 0.9 0.9 2.2 0.1 3l-19.9 19.9zM243.5 799.7c-0.8 0.8-2.1 0.7-3-0.1l-4.7-4.7c-0.8-0.8-0.9-2.2-0.1-3l19.9-19.9c0.8-0.8 2.1-0.7 3 0.1l4.7 4.7c0.8 0.8 0.9 2.2 0.1 3l-19.9 19.9zM202.9 858.1c-0.6 0.6-1.7 0.5-2.5-0.2L146.5 804c-0.7-0.7-0.9-1.9-0.2-2.5l30.7-30.7c0.6-0.6 1.7-0.5 2.5 0.2l53.9 53.9c0.8 0.8 0.9 1.9 0.3 2.5l-30.8 30.7zM348.9 702.5c-2.5 2.5-6.6 2.5-9.2 0l-37.8-37.8c-2.5-2.5-2.5-6.6 0-9.1l8.6-8.6c2.5-2.5 6.6-2.5 9.1 0l37.8 37.8c2.5 2.5 2.5 6.6 0 9.2l-8.5 8.5zM316.3 735.1c-2.5 2.5-6.6 2.5-9.1 0l-37.8-37.8c-2.5-2.5-2.5-6.6 0-9.1l8.6-8.6c2.5-2.5 6.6-2.5 9.2 0l37.8 37.8c2.5 2.5 2.5 6.6 0 9.2l-8.7 8.5z" fill="#735F4F" p-id="13763"></path><path d="M775.9 195.4L350.5 611.7l21.1 21.1 21.1 21.1L809 228.5z" fill="#735F4F" p-id="13764"></path><path d="M785.6 254c-0.3 0.3-0.9 0.3-1.2-0.1l-33.8-33.8c-0.4-0.4-0.4-0.9-0.1-1.2 0.3-0.3 0.9-0.3 1.2 0.1l33.8 33.8c0.4 0.3 0.4 0.9 0.1 1.2zM753.9 286c-0.3 0.3-0.9 0.3-1.2-0.1l-34.1-34.1c-0.4-0.4-0.4-0.9-0.1-1.3 0.3-0.3 0.9-0.2 1.3 0.1l34.1 34.1c0.3 0.4 0.3 1 0 1.3zM694.6 345.4c-0.3 0.3-0.9 0.2-1.2-0.1L659.2 311c-0.4-0.4-0.4-0.9-0.1-1.2 0.3-0.3 0.8-0.2 1.2 0.1l34.2 34.2c0.4 0.4 0.4 1 0.1 1.3zM664.9 375.8c-0.3 0.3-0.9 0.2-1.2-0.2l-34.8-34.8c-0.4-0.4-0.4-0.9-0.1-1.2 0.3-0.3 0.9-0.2 1.2 0.1l34.8 34.8c0.3 0.4 0.4 1 0.1 1.3zM725 314.5c-0.3 0.3-0.9 0.3-1.3-0.1l-33.8-33.8c-0.4-0.4-0.4-0.9-0.1-1.3 0.3-0.3 0.9-0.2 1.2 0.1l33.8 33.8c0.5 0.5 0.5 1 0.2 1.3zM627.4 414.1c-0.3 0.3-0.9 0.2-1.3-0.1l-35.6-35.6c-0.4-0.4-0.4-1-0.1-1.3 0.3-0.3 0.9-0.2 1.3 0.1l35.6 35.6c0.3 0.4 0.4 1 0.1 1.3zM595.9 446.3c-0.3 0.3-0.9 0.2-1.3-0.1l-36.3-36.3c-0.4-0.4-0.5-1-0.1-1.3 0.3-0.3 0.9-0.3 1.3 0.1l36.3 36.3c0.3 0.4 0.4 0.9 0.1 1.3zM564.5 478.5c-0.3 0.3-0.9 0.3-1.3-0.1L526 441.2c-0.4-0.4-0.5-1-0.2-1.3 0.3-0.3 0.9-0.2 1.3 0.2l37.2 37.2c0.5 0.3 0.5 0.9 0.2 1.2zM540 503.4c-0.3 0.3-0.9 0.3-1.3-0.2l-37.4-37.4c-0.4-0.4-0.5-1-0.2-1.3 0.3-0.3 0.9-0.2 1.3 0.2l37.4 37.4c0.4 0.4 0.5 0.9 0.2 1.3zM515.4 528.2c-0.3 0.3-0.9 0.3-1.3-0.1l-37.7-37.7c-0.4-0.4-0.5-1-0.2-1.3 0.3-0.3 0.9-0.2 1.3 0.2l37.7 37.7c0.5 0.3 0.5 0.8 0.2 1.2zM494.3 550c-0.3 0.3-0.9 0.2-1.3-0.2l-38.4-38.4c-0.4-0.4-0.5-1-0.2-1.3 0.3-0.3 0.9-0.2 1.3 0.2l38.4 38.4c0.5 0.4 0.6 1 0.2 1.3zM479.2 565.2c-0.3 0.3-0.9 0.2-1.3-0.2l-38.4-38.4c-0.4-0.4-0.5-1-0.2-1.3 0.3-0.3 0.9-0.2 1.3 0.2l38.4 38.4c0.4 0.3 0.5 0.9 0.2 1.3zM463.5 581.2c-0.3 0.3-0.9 0.2-1.4-0.2l-38.7-38.7c-0.4-0.4-0.5-1-0.2-1.4 0.3-0.3 0.9-0.2 1.4 0.2l38.7 38.7c0.5 0.4 0.5 1.1 0.2 1.4zM449.3 596c-0.3 0.3-0.9 0.2-1.4-0.2l-39.4-39.3c-0.4-0.4-0.5-1.1-0.2-1.4 0.3-0.3 0.9-0.2 1.4 0.2l39.4 39.4c0.4 0.4 0.5 1 0.2 1.3zM434.1 612.5c-0.3 0.3-0.9 0.2-1.4-0.2l-40.5-40.5c-0.4-0.4-0.6-1.1-0.2-1.4 0.3-0.3 0.9-0.2 1.4 0.2l40.5 40.5c0.4 0.5 0.5 1.1 0.2 1.4zM423 623.6c-0.3 0.3-0.9 0.2-1.4-0.2l-40.5-40.5c-0.4-0.4-0.6-1.1-0.2-1.4 0.3-0.3 0.9-0.2 1.4 0.2l40.5 40.5c0.4 0.4 0.5 1.1 0.2 1.4zM412.8 633.8c-0.3 0.3-0.9 0.2-1.4-0.2L370.8 593c-0.4-0.4-0.5-1.1-0.2-1.4 0.3-0.3 0.9-0.2 1.4 0.2l40.5 40.5c0.5 0.6 0.6 1.2 0.3 1.5z" fill="#BAB8BD" p-id="13765"></path><path d="M777.828 197.318l1.91 1.909-618.925 618.925-1.91-1.91zM188 845.6l-1.8-1.9 618.9-618.9 1.9 1.9zM179.1 836.3l-1.9-1.9 618.9-618.9 1.9 1.9zM170 827.2l-1.9-1.9L787 206.4l1.9 1.9z" fill="#DBDBDB" p-id="13766"></path></svg>