<?xml version="1.0" standalone="no"?><!DOCTYPE svg PUBLIC "-//W3C//DTD SVG 1.1//EN" "http://www.w3.org/Graphics/SVG/1.1/DTD/svg11.dtd"><svg t="1533809000795" class="icon" style="" viewBox="0 0 1024 1024" version="1.1" xmlns="http://www.w3.org/2000/svg" p-id="13895" xmlns:xlink="http://www.w3.org/1999/xlink" width="200" height="200"><defs><style type="text/css"></style></defs><path d="M872.1 274.8c-37.4-24.4-102.7 8.1-143.2 23.1-40.4 15-96.4 71-153.8-91.4-57.3-162.3-219.5-164-219.5-164v127.8c12.6 0 43.1 5.8 60.4 15.7 17.3 9.9 68 66.2 88 99.3 20 33.1 57.7 112.7 144.7 104.9 86.9-7.8 133.4-57.8 148.7-68.3 15.2-10.5 15.1 0 15.1 0l-0.5 17-477.2 559.8s-26.8 30 27.7 30 144.4-2.8 144.4-2.8l357.6-587s45.1-39.7 7.6-64.1z" fill="#7A6557" p-id="13896"></path><path d="M320.3 242.1h44.3v475.7h-44.3z" fill="#7A6557" p-id="13897"></path><path d="M398.7 143.1h7.5v688.1h-7.5z" fill="#E27866" p-id="13898"></path><path d="M413.4 143.1c0 6.1-4.9 11-11 11s-11-4.9-11-11 4.9-11 11-11 11 4.9 11 11zM413.4 831.2c0 6.1-4.9 11-11 11s-11-4.9-11-11c0-6 4.9-11 11-11s11 5 11 11z" fill="#CE7467" p-id="13899"></path><path d="M467.1 211.7h7.5v534.4h-7.5z" fill="#E27866" p-id="13900"></path><path d="M481.8 746.1c0 6.1-4.9 11-11 11s-11-4.9-11-11c0-6 4.9-10.9 11-10.9s11 4.9 11 10.9zM481.8 211.7c0 6.1-4.9 11-11 11s-11-4.9-11-11c0-6 4.9-11 11-11s11 5 11 11z" fill="#CE7467" p-id="13901"></path><path d="M501.3 259.2h7.5v450h-7.5z" fill="#E27866" p-id="13902"></path><path d="M516 709.2c0 6.1-4.9 11-11 11s-11-4.9-11-11c0-6 4.9-10.9 11-10.9s11 4.9 11 10.9zM516 259.2c0 6.1-4.9 11-11 11s-11-4.9-11-11c0-6 4.9-11 11-11s11 5 11 11z" fill="#CE7467" p-id="13903"></path><path d="M535.5 307.6h7.5v360.6h-7.5z" fill="#E27866" p-id="13904"></path><path d="M550.2 668.1c0 6-4.9 10.9-11 10.9-6 0-11-4.9-11-10.9 0-6.1 4.9-11 11-11 6.1 0.1 11 4.9 11 11zM550.2 307.6c0 6.1-4.9 11-11 11-6 0-11-4.9-11-11 0-6 4.9-10.9 11-10.9 6.1-0.1 11 4.8 11 10.9z" fill="#CE7467" p-id="13905"></path><path d="M569.8 326.7h7.5v308.2h-7.5z" fill="#E27866" p-id="13906"></path><path d="M584.4 629.6c0 6-4.9 10.9-10.9 10.9s-11-4.9-11-10.9 4.9-11 11-11c6 0 10.9 4.9 10.9 11zM584.4 335.9c0 6.1-4.9 11-10.9 11s-11-4.9-11-11 4.9-11 11-11c6 0.1 10.9 5 10.9 11z" fill="#CE7467" p-id="13907"></path><path d="M604 346.9h7.5v240.9H604z" fill="#E27866" p-id="13908"></path><path d="M618.7 587.8c0 6.1-4.9 11-11 11s-11-4.9-11-11c0-6 4.9-11 11-11s11 5 11 11zM618.7 352.2c0 6.1-4.9 11-11 11s-11-4.9-11-11 4.9-11 11-11c6.1 0.1 11 5 11 11z" fill="#CE7467" p-id="13909"></path><path d="M638.2 346.9h7.5v202.9h-7.5z" fill="#E27866" p-id="13910"></path><path d="M652.9 549.8c0 6.1-4.9 11-10.9 11s-11-4.9-11-11c0-6 4.9-11 11-11 6 0.1 10.9 5 10.9 11zM652.9 346.9c0 6.1-4.9 11-10.9 11s-11-4.9-11-11 4.9-11 11-11c6 0 10.9 4.9 10.9 11z" fill="#CE7467" p-id="13911"></path><path d="M672.4 346.9h7.5v160.9h-7.5z" fill="#E27866" p-id="13912"></path><path d="M687.1 507.7c0 6.1-4.9 11-11 11s-11-4.9-11-11 4.9-11 11-11 11 5 11 11zM687.1 338.9c0 6.1-4.9 11-11 11s-11-4.9-11-11c0-6 4.9-11 11-11s11 4.9 11 11z" fill="#CE7467" p-id="13913"></path><path d="M706.6 330.3h7.5V467h-7.5z" fill="#E27866" p-id="13914"></path><path d="M721.3 467c0 6-4.9 10.9-10.9 10.9-6.1 0-11-4.9-11-10.9 0-6.1 4.9-11 11-11 6 0 10.9 4.9 10.9 11zM721.3 327.9c0 6.1-4.9 11-10.9 11-6.1 0-11-4.9-11-11 0-6 4.9-10.9 11-10.9 6 0 10.9 4.9 10.9 10.9z" fill="#CE7467" p-id="13915"></path><path d="M740.8 318.5h7.5v108.8h-7.5z" fill="#E27866" p-id="13916"></path><path d="M755.5 427.3c0 6.1-4.9 11-11 11-6 0-10.9-4.9-10.9-11s4.9-11 10.9-11c6.1 0.1 11 5 11 11zM755.5 315c0 6.1-4.9 11-11 11-6 0-10.9-4.9-10.9-11s4.9-11 10.9-11c6.1 0 11 4.9 11 11z" fill="#CE7467" p-id="13917"></path><path d="M775 294.8h7.5v91.3H775z" fill="#E27866" p-id="13918"></path><path d="M789.7 386.1c0 6-4.9 11-11 11s-11-4.9-11-11c0-6 4.9-11 11-11 6.1 0.1 11 5 11 11zM789.7 296.5c0 6.1-4.9 11-11 11s-11-4.9-11-11 4.9-11 11-11c6.1 0.1 11 5 11 11z" fill="#CE7467" p-id="13919"></path><path d="M432.9 172.4h7.5v617.2h-7.5z" fill="#E27866" p-id="13920"></path><path d="M447.6 788.3c0 6-4.9 11-11 11-6 0-11-4.9-11-11s4.9-11 11-11 11 4.9 11 11zM447.6 172.4c0 6.1-4.9 11-11 11-6 0-11-4.9-11-11 0-6 4.9-11 11-11s11 5 11 11z" fill="#CE7467" p-id="13921"></path><path d="M366.9 786.4c0 1.9-1.8 3.5-3.9 3.5h-41.1c-2.2 0-3.9-1.6-3.9-3.5v-86.9c0-1.9 1.7-3.5 3.9-3.5H363c2.2 0 3.9 1.6 3.9 3.5v86.9zM315.6 810c0-1 0.8-1.7 1.8-1.7h50.2c1 0 1.8 0.8 1.8 1.7v73.9c0 1-0.8 1.8-1.8 1.8h-50.2c-1 0-1.8-0.8-1.8-1.8V810z" fill="#735F4F" p-id="13922"></path><path d="M307.8 885.7c0-7.8 6.3-14.1 14.1-14.1H363c7.8 0 14.1 6.3 14.1 14.1v27.8c0 7.8-6.3 14.1-14.1 14.1h-41.1c-7.8 0-14.1-6.3-14.1-14.1v-27.8zM372.7 822.3c0 1.9-1.6 3.5-3.5 3.5h-53.6c-1.9 0-3.5-1.6-3.5-3.5v-32.9c0-1.9 1.6-3.5 3.5-3.5h53.6c1.9 0 3.5 1.6 3.5 3.5v32.9z" fill="#E27866" p-id="13923"></path><path d="M317.9 170.1c0-1.9 1.8-3.5 3.9-3.5H363c2.2 0 3.9 1.6 3.9 3.5V257c0 1.9-1.7 3.5-3.9 3.5h-41.1c-2.2 0-3.9-1.6-3.9-3.5v-86.9zM369.3 146.5c0 1-0.8 1.7-1.8 1.7h-50.2c-1 0-1.8-0.8-1.8-1.7v-74c0-1 0.8-1.8 1.8-1.8h50.2c1 0 1.8 0.8 1.8 1.8v74z" fill="#735F4F" p-id="13924"></path><path d="M377 70.8c0 7.8-6.3 14.1-14.1 14.1h-41.1c-7.8 0-14.1-6.3-14.1-14.1V43c0-7.8 6.3-14.1 14.1-14.1H363c7.8 0 14.1 6.3 14.1 14.1v27.8z" fill="#735F4F" p-id="13925"></path><path d="M312.1 134.1c0-1.9 1.6-3.5 3.5-3.5h53.6c1.9 0 3.5 1.6 3.5 3.5V167c0 1.9-1.6 3.5-3.5 3.5h-53.6c-1.9 0-3.5-1.6-3.5-3.5v-32.9z" fill="#E27866" p-id="13926"></path><path d="M528.7 969.3c0 4.8-4.3 8.8-9.5 8.8H295.3c-5.3 0-9.6-3.9-9.6-8.8V918c0-4.9 4.3-8.8 9.6-8.8h223.8c5.3 0 9.5 3.9 9.5 8.8v51.3z" fill="#735F4F" p-id="13927"></path></svg>