<?xml version="1.0" standalone="no"?><!DOCTYPE svg PUBLIC "-//W3C//DTD SVG 1.1//EN" "http://www.w3.org/Graphics/SVG/1.1/DTD/svg11.dtd"><svg t="1533961419929" class="icon" style="" viewBox="0 0 1024 1024" version="1.1" xmlns="http://www.w3.org/2000/svg" p-id="4744" xmlns:xlink="http://www.w3.org/1999/xlink" width="200" height="200"><defs><style type="text/css"></style></defs><path d="M163.84 102.4h675.84v204.8H163.84z" fill="#DAE9FF" p-id="4745"></path><path d="M737.28 722.944H280.576c-12.288 0-20.48-8.192-20.48-20.48s8.192-20.48 20.48-20.48H737.28c12.288 0 20.48 8.192 20.48 20.48s-8.192 20.48-20.48 20.48zM512 825.344H280.576c-12.288 0-20.48-8.192-20.48-20.48s8.192-20.48 20.48-20.48H512c12.288 0 20.48 8.192 20.48 20.48s-8.192 20.48-20.48 20.48zM440.32 430.08c-16.384 0-30.72-14.336-30.72-30.72s14.336-30.72 30.72-30.72 30.72 14.336 30.72 30.72-14.336 30.72-30.72 30.72z m143.36 0c-16.384 0-30.72-14.336-30.72-30.72s14.336-30.72 30.72-30.72 30.72 14.336 30.72 30.72-14.336 30.72-30.72 30.72zM450.56 512c0-12.288 8.192-20.48 20.48-20.48s20.48 8.192 20.48 20.48 8.192 20.48 20.48 20.48 20.48-8.192 20.48-20.48 8.192-20.48 20.48-20.48 20.48 8.192 20.48 20.48c0 34.816-26.624 61.44-61.44 61.44s-61.44-26.624-61.44-61.44z" fill="#3988FF" p-id="4746"></path><path d="M143.36 266.24h716.8v61.44H143.36z" fill="#3889FF" p-id="4747"></path><path d="M817.152 448.512v425.984c0 30.72-24.576 57.344-55.296 57.344H237.568c-30.72 0-55.296-26.624-55.296-57.344V190.464c0-30.72 24.576-57.344 55.296-57.344h524.288c30.72 0 55.296 26.624 55.296 57.344v120.832l61.44 63.488 40.96 40.96 43.008-43.008-83.968-86.016V190.464c0-65.536-53.248-118.784-116.736-118.784H237.568c-63.488 0-116.736 53.248-116.736 118.784v684.032c0 65.536 53.248 118.784 116.736 118.784h524.288c63.488 0 116.736-53.248 116.736-118.784V448.512h-61.44z" fill="#3988FF" p-id="4748"></path></svg>