<?xml version="1.0" standalone="no"?><!DOCTYPE svg PUBLIC "-//W3C//DTD SVG 1.1//EN" "http://www.w3.org/Graphics/SVG/1.1/DTD/svg11.dtd"><svg t="1533961399105" class="icon" style="" viewBox="0 0 1024 1024" version="1.1" xmlns="http://www.w3.org/2000/svg" p-id="3825" xmlns:xlink="http://www.w3.org/1999/xlink" width="200" height="200"><defs><style type="text/css"></style></defs><path d="M930.909091 558.545455H651.636364c-51.2 0-93.090909 41.890909-93.090909 93.090909v279.272727c0 51.2 41.890909 93.090909 93.090909 93.090909h279.272727c51.2 0 93.090909-41.890909 93.090909-93.090909V651.636364c0-51.2-41.890909-93.090909-93.090909-93.090909z m46.545454 360.727272c0 32.581818-25.6 58.181818-58.181818 58.181818h-256c-32.581818 0-58.181818-25.6-58.181818-58.181818v-256c0-32.581818 25.6-58.181818 58.181818-58.181818h256c32.581818 0 58.181818 25.6 58.181818 58.181818v256zM791.272727 465.454545c128 0 232.727273-104.727273 232.727273-232.727272S919.272727 0 791.272727 0 558.545455 104.727273 558.545455 232.727273s104.727273 232.727273 232.727272 232.727272z m0-418.90909c102.4 0 186.181818 83.781818 186.181818 186.181818s-83.781818 186.181818-186.181818 186.181818-186.181818-83.781818-186.181818-186.181818 83.781818-186.181818 186.181818-186.181818zM372.363636 558.545455H93.090909c-51.2 0-93.090909 41.890909-93.090909 93.090909v279.272727c0 51.2 41.890909 93.090909 93.090909 93.090909h279.272727c51.2 0 93.090909-41.890909 93.090909-93.090909V651.636364c0-51.2-41.890909-93.090909-93.090909-93.090909z m46.545455 360.727272c0 32.581818-25.6 58.181818-58.181818 58.181818h-256C72.145455 977.454545 46.545455 951.854545 46.545455 919.272727v-256C46.545455 630.690909 72.145455 605.090909 104.727273 605.090909h256c32.581818 0 58.181818 25.6 58.181818 58.181818v256zM372.363636 0H93.090909C41.890909 0 0 41.890909 0 93.090909v279.272727c0 51.2 41.890909 93.090909 93.090909 93.090909h279.272727c51.2 0 93.090909-41.890909 93.090909-93.090909V93.090909c0-51.2-41.890909-93.090909-93.090909-93.090909z m46.545455 360.727273c0 32.581818-25.6 58.181818-58.181818 58.181818h-256C72.145455 418.909091 46.545455 393.309091 46.545455 360.727273v-256C46.545455 72.145455 72.145455 46.545455 104.727273 46.545455h256C393.309091 46.545455 418.909091 72.145455 418.909091 104.727273v256z" fill="#d4237a" p-id="3826"></path></svg>